<?xml version="1.0" encoding="UTF-8"?>
<svg version="1.1" xmlns="http://www.w3.org/2000/svg" width="1818" height="1048">
<path d="M0 0 C17.72657562 16.62410447 28.71607297 35.41914566 32.75 59.5625 C32.88148438 60.34882813 33.01296875 61.13515625 33.1484375 61.9453125 C37.91460748 96.85428722 22.5747189 132.11672686 2.10131836 159.58325195 C0.03567893 162.28548502 -2.09748011 164.92923461 -4.25 167.5625 C-4.68473633 168.1002002 -5.11947266 168.63790039 -5.56738281 169.19189453 C-14.38712463 180.03589181 -24.26747849 189.7966999 -34.25 199.5625 C-30.82890042 200.33271076 -27.66443969 200.69092393 -24.16035461 200.70294189 C-22.6571743 200.71150711 -22.6571743 200.71150711 -21.12362671 200.72024536 C-19.49102402 200.72192215 -19.49102402 200.72192215 -17.82543945 200.72363281 C-16.09279594 200.73108017 -16.09279594 200.73108017 -14.32514954 200.73867798 C-10.5045207 200.75328012 -6.6839334 200.76009877 -2.86328125 200.765625 C-0.87628953 200.7699239 1.11070219 200.77422334 3.09769374 200.7785995 C8.63508223 200.79040025 14.17246072 200.79794403 19.7098605 200.8013947 C26.84970779 200.80586948 33.98936306 200.82339463 41.129152 200.8523953 C46.66227595 200.87408246 52.19534615 200.88410276 57.72851211 200.88543582 C61.02643191 200.88647907 64.32413096 200.89375218 67.622015 200.91025543 C71.30764528 200.92738094 74.99281246 200.92541935 78.6784668 200.91894531 C79.75674744 200.9281601 80.83502808 200.93737488 81.94598389 200.9468689 C91.37561551 200.895192 100.76384908 199.40607641 107.75 192.5625 C115.59000745 183.22121453 115.04243986 171.56292383 115.00537109 159.97167969 C115.00812667 158.52495629 115.01181 157.07823442 115.01634216 155.6315155 C115.02440722 152.53396302 115.0266345 149.43648252 115.02439499 146.33892059 C115.02154137 141.42789413 115.03599048 136.51700914 115.05337524 131.60601807 C115.10020559 117.64703484 115.12432831 103.68806231 115.13085938 89.72900391 C115.13462528 82.00557435 115.15277438 74.28230626 115.18595374 66.55894589 C115.20602106 61.69048155 115.208611 56.8224378 115.19767356 51.95394945 C115.19504224 48.90816228 115.20918679 45.86261352 115.22775459 42.81688881 C115.23301811 41.41984495 115.23168172 40.02275554 115.22271919 38.62573051 C115.09547423 17.0251628 124.11416495 1.69589858 136.56640625 -15.078125 C139.78559009 -19.42864188 142.78867386 -23.90864788 145.75 -28.4375 C149.95866854 -24.49763328 153.22191985 -20.2312112 156.5 -15.5 C157.02150635 -14.75000732 157.5430127 -14.00001465 158.08032227 -13.22729492 C159.13987595 -11.69625201 160.19597937 -10.16281533 161.24853516 -8.62695312 C162.19319344 -7.24944166 163.14270526 -5.87523363 164.09912109 -4.50585938 C172.34257608 7.32268155 177.84157592 19.43749414 177.89717102 34.12322998 C177.90790398 36.07811592 177.90790398 36.07811592 177.91885376 38.07249451 C177.92169364 39.50503516 177.92440541 40.93757607 177.92700195 42.37011719 C177.93327324 43.88857679 177.93992062 45.40703488 177.94691467 46.92549133 C177.96789334 51.90344182 177.97831713 56.88139237 177.98828125 61.859375 C177.99233231 63.58073187 177.99644934 65.30208858 178.00063133 67.02344513 C178.01967614 75.12006386 178.03390387 83.21667357 178.0422433 91.31331038 C178.05198757 100.61742146 178.07823618 109.92129286 178.11874419 119.22531962 C178.14906932 126.4418 178.16372793 133.65821237 178.16702431 140.87475514 C178.16935782 145.17227543 178.17809238 149.46953953 178.20348549 153.76699066 C178.38797423 186.71141415 175.05039859 213.88567527 150.75 238.5625 C131.01932922 258.32964152 106.65695742 264.03447798 79.68384123 264.09323758 C76.87724266 264.0924179 74.07075204 264.08026201 71.26418877 264.06687045 C67.58225161 264.05282984 63.90033819 264.05950042 60.21838379 264.06300354 C54.04915391 264.06568816 47.88012058 264.05237284 41.7109375 264.02905273 C34.60054211 264.00235921 27.49047291 264.00073235 20.38004446 264.0124411 C13.49809735 264.02324769 6.61626707 264.01701535 -0.26567078 264.00288582 C-3.17773738 263.99716044 -6.08971752 263.99718104 -9.00178528 264.00195122 C-13.06712386 264.00764373 -17.13198142 263.98833367 -21.19726562 263.96655273 C-22.39119934 263.97105438 -23.58513306 263.97555603 -24.81524658 263.98019409 C-35.06187914 263.88919701 -44.63000045 261.83257505 -52.3203125 254.62109375 C-59.48217111 247.02318101 -62.46360068 240.20975668 -63.3671875 229.84765625 C-63.20497766 225.30037374 -62.24171099 220.99342085 -61.25 216.5625 C-63.23068895 218.01751462 -65.21077551 219.47333368 -67.18994141 220.93041992 C-68.91923403 222.2017452 -70.65073965 223.47006498 -72.38427734 224.7355957 C-76.39172731 227.67065528 -80.36500627 230.61330764 -84.1953125 233.77734375 C-107.29967477 252.6366735 -141.86845672 263.68863962 -171.61645508 263.72363281 C-173.14471169 263.73108017 -173.14471169 263.73108017 -174.70384216 263.73867798 C-178.05907884 263.7532285 -181.41426826 263.76008925 -184.76953125 263.765625 C-187.1121165 263.7713817 -189.45470174 263.77713936 -191.79728699 263.78289795 C-196.70380878 263.79338729 -201.61031428 263.79924367 -206.5168457 263.80273438 C-212.78776552 263.80821888 -219.0584682 263.83225498 -225.32931995 263.86070633 C-230.16705445 263.87937565 -235.00473703 263.88454057 -239.8425045 263.88607025 C-242.15364457 263.8890869 -244.46478395 263.89708184 -246.77588844 263.91025543 C-250.01587873 263.92740783 -253.25534342 263.92541327 -256.49536133 263.91894531 C-257.43958954 263.9281601 -258.38381775 263.93737488 -259.35665894 263.9468689 C-270.43087377 263.87800025 -279.56612633 260.44833234 -288.25 253.5625 C-296.5461178 245.00520813 -301.32206343 234.57563629 -301.875 222.6875 C-301.93300781 221.65496094 -301.93300781 221.65496094 -301.9921875 220.6015625 C-302.08548166 218.92226754 -302.16878238 217.24242233 -302.25 215.5625 C-303.44496094 216.95662109 -303.44496094 216.95662109 -304.6640625 218.37890625 C-311.0390625 225.81640625 -311.0390625 225.81640625 -312.65795898 227.69335938 C-313.69920736 228.91584022 -314.72555338 230.15121334 -315.73461914 231.40039062 C-319.21664343 235.65845534 -322.88007647 238.86821476 -327.4375 241.9375 C-328.12602051 242.4030127 -328.81454102 242.86852539 -329.52392578 243.34814453 C-357.91156773 261.9832886 -393.06886127 268.31754923 -426.4375 262 C-447.27218009 257.59708551 -466.35702144 248.80557189 -482.25 234.5625 C-485.68757695 236.04127747 -487.85482138 238.00294357 -490.5 240.625 C-509.83048421 258.28074329 -535.160822 264.05612158 -560.58203125 263.99609375 C-562.31109315 264.00067264 -564.04015325 264.00598316 -565.76921082 264.01197815 C-569.37038627 264.02084286 -572.9713392 264.01856359 -576.57250977 264.00854492 C-581.13420044 263.99707599 -585.6951145 264.01726917 -590.25670338 264.04646206 C-593.82175894 264.065017 -597.38663506 264.06449353 -600.95172691 264.05882454 C-602.63105036 264.0586736 -604.31038783 264.06452398 -605.98966408 264.07711601 C-619.37762465 264.16338708 -632.82428176 262.9862954 -645.25 257.5625 C-645.45302734 259.14611328 -645.45302734 259.14611328 -645.66015625 260.76171875 C-649.95716928 291.38407019 -663.41803866 320.46971334 -688.05664062 339.99414062 C-713.52081792 358.949902 -744.06199965 364.74155006 -775.375 361.06640625 C-793.3343518 358.37896949 -810.57332452 351.54264284 -826.25 342.5625 C-824.64796208 339.56219215 -823.01646407 336.5788497 -821.37207031 333.6015625 C-820.54937947 332.10654206 -819.73173549 330.60874143 -818.91699219 329.109375 C-817.41690484 326.35669963 -815.8972058 323.61549732 -814.375 320.875 C-813.89385742 319.98466064 -813.41271484 319.09432129 -812.91699219 318.17700195 C-808.58673581 310.44963502 -803.27095235 303.37360905 -795 299.625 C-794.19046875 299.24472656 -793.3809375 298.86445312 -792.546875 298.47265625 C-784.66401951 295.34900773 -775.82552304 295.89879677 -767.625 297.5625 C-755.02743382 300.08928456 -741.18824675 298.79451826 -730.1328125 291.859375 C-729.51148438 291.43140625 -728.89015625 291.0034375 -728.25 290.5625 C-727.21875 289.86125 -726.1875 289.16 -725.125 288.4375 C-712.23306567 276.93832312 -708.53305491 257.95746285 -707.25 241.5625 C-707.12510278 238.49418292 -707.10782095 235.4317253 -707.11196899 232.36112976 C-707.10773707 231.05737694 -707.10773707 231.05737694 -707.10341966 229.72728568 C-707.09515606 226.84511798 -707.09374257 223.96298908 -707.09228516 221.08081055 C-707.08761092 219.0019317 -707.08246636 216.92305387 -707.07688904 214.84417725 C-707.06565044 210.38139124 -707.057196 205.91861175 -707.05076981 201.45581627 C-707.04004366 194.39018173 -707.01978734 187.32459428 -706.99765015 180.25898743 C-706.93587835 160.17178503 -706.88172878 140.08458613 -706.84863281 119.99731445 C-706.83025672 108.8924857 -706.80128711 97.78773665 -706.7606281 86.68296653 C-706.7396161 80.81464739 -706.72410898 74.94642842 -706.72182083 69.07806969 C-706.71966507 63.55644677 -706.70370132 58.03503271 -706.67743111 52.51347351 C-706.67027317 50.49517788 -706.66811999 48.47685685 -706.67153358 46.45855141 C-706.71025714 19.19505224 -697.80311815 1.86081476 -681.25 -19.4375 C-680.26410889 -20.70811279 -680.26410889 -20.70811279 -679.25830078 -22.00439453 C-677.59101247 -24.15044655 -675.92160757 -26.29481167 -674.25 -28.4375 C-654.28474145 -3.9035324 -642.78688164 18.15022229 -642.81762695 50.16577148 C-642.80858992 52.08914817 -642.79825802 54.01251913 -642.78674316 55.93588257 C-642.75937485 61.11046472 -642.74991631 66.284937 -642.74388909 71.45958209 C-642.73445246 76.88480581 -642.70824513 82.30994915 -642.68388367 87.73512268 C-642.64035966 97.98752957 -642.61172634 108.23992074 -642.58856028 118.49239165 C-642.56143269 130.17333781 -642.51752607 141.85420253 -642.47227156 153.53509033 C-642.37962739 177.54418261 -642.30785441 201.55330044 -642.25 225.5625 C-641.86183105 224.74265625 -641.47366211 223.9228125 -641.07373047 223.078125 C-640.55182129 222.00046875 -640.02991211 220.9228125 -639.4921875 219.8125 C-638.98026855 218.74515625 -638.46834961 217.6778125 -637.94091797 216.578125 C-633.83282246 209.25164569 -626.46276118 204.48158991 -618.5194397 202.02793884 C-615.67183331 201.44392393 -612.98743029 201.41410846 -610.07958984 201.38891602 C-608.20646622 201.36868126 -608.20646622 201.36868126 -606.29550171 201.34803772 C-605.63044994 201.34297777 -604.96539818 201.33791782 -604.28019333 201.33270454 C-602.1851322 201.316203 -600.0902439 201.29295783 -597.99526978 201.26780701 C-592.03974141 201.19731363 -586.08413994 201.13722859 -580.12841797 201.08569336 C-576.47971511 201.05364773 -572.83120864 201.01230455 -569.18266678 200.96549797 C-567.80100715 200.9496225 -566.41930237 200.93723547 -565.03757858 200.92859077 C-550.35638158 200.8354697 -538.0599165 199.3724165 -527.25 188.5625 C-520.88364275 179.46334191 -518.96065656 172.07221997 -518.90625 161.0859375 C-518.8843158 159.40523666 -518.8843158 159.40523666 -518.86193848 157.69058228 C-518.81555717 154.10625815 -518.78136666 150.52198494 -518.75 146.9375 C-518.38287454 105.85333734 -518.38287454 105.85333734 -514 88.75 C-513.78384033 87.88093018 -513.56768066 87.01186035 -513.3449707 86.11645508 C-511.3179118 78.27921665 -508.61954878 70.93388818 -505.25 63.5625 C-504.96817871 62.93069824 -504.68635742 62.29889648 -504.39599609 61.64794922 C-496.86921228 44.92776628 -486.22279733 30.46467305 -473.25 17.5625 C-472.37988281 16.69238281 -471.50976562 15.82226562 -470.61328125 14.92578125 C-454.46453788 -0.45052597 -434.3935823 -11.60193522 -413.25 -18.4375 C-411.52716797 -19.03498047 -411.52716797 -19.03498047 -409.76953125 -19.64453125 C-392.19951019 -24.7194165 -372.88642931 -13.72169209 -357.67626953 -5.53320312 C-323.69867761 13.43547218 -298.59263306 46.49865348 -287.640625 83.62841797 C-281.57163204 105.53112652 -281.90226926 127.81486213 -281.86914062 150.36303711 C-281.85956553 154.24884892 -281.82576544 158.13389369 -281.7890625 162.01953125 C-281.79410797 163.18652054 -281.79915344 164.35350983 -281.80435181 165.55586243 C-281.68454912 175.69183358 -279.98949969 186.59763673 -273.25 194.5625 C-267.22655485 200.42314933 -260.24339842 200.86156484 -252.26391602 200.8371582 C-250.95494102 200.8448246 -250.95494102 200.8448246 -249.61952209 200.85264587 C-246.74757937 200.86649089 -243.87587831 200.86558761 -241.00390625 200.86328125 C-238.98957736 200.86717358 -236.97524928 200.87150935 -234.96092224 200.87626648 C-230.73865095 200.88371974 -226.51646326 200.8834458 -222.29418945 200.87817383 C-216.92510719 200.87240856 -211.5563732 200.88924311 -206.18734837 200.9125185 C-202.02361603 200.92737455 -197.85996501 200.92811106 -193.69621086 200.92500877 C-191.71938327 200.92551698 -189.74255051 200.93065888 -187.76574898 200.94082069 C-172.74004876 201.00853228 -158.32493225 200.21552004 -144.25 194.375 C-143.21359375 193.96604492 -143.21359375 193.96604492 -142.15625 193.54882812 C-140.51573369 192.89945709 -138.88196169 192.23308 -137.25 191.5625 C-137.25 187.87007004 -138.30984643 186.35258372 -140.15234375 183.1640625 C-141.10403442 181.50709351 -141.10403442 181.50709351 -142.07495117 179.81665039 C-142.77888024 178.60678585 -143.48307045 177.39707321 -144.1875 176.1875 C-144.91228949 174.93310637 -145.63664772 173.67846347 -146.3605957 172.42358398 C-148.26594421 169.12577215 -150.18026707 165.83326252 -152.09741211 162.54229736 C-153.22243086 160.60985545 -154.34502484 158.67602731 -155.46679688 156.74169922 C-163.47830078 142.93215459 -171.60884918 129.21206552 -180.0703125 115.671875 C-183.5348764 110.12425555 -186.92308743 104.53123529 -190.3125 98.9375 C-194.71036514 91.69015936 -199.15743793 84.47798682 -203.6875 77.3125 C-204.17903564 76.53068359 -204.67057129 75.74886719 -205.17700195 74.94335938 C-207.24266684 71.66992836 -209.32134692 68.42248815 -211.55078125 65.2578125 C-212.19402344 64.32710938 -212.83726562 63.39640625 -213.5 62.4375 C-214.31210938 61.31988281 -214.31210938 61.31988281 -215.140625 60.1796875 C-218.27992445 52.77359373 -215.73528846 43.0418013 -214.70581055 35.34082031 C-214.43639449 33.30414278 -214.18566986 31.26568827 -213.93554688 29.2265625 C-213.6793457 27.28136719 -213.6793457 27.28136719 -213.41796875 25.296875 C-213.26610107 24.12350586 -213.1142334 22.95013672 -212.95776367 21.74121094 C-211.87232673 16.86629236 -209.91654649 13.66480769 -205.8359375 10.80078125 C-205.1665918 10.32680908 -204.49724609 9.85283691 -203.80761719 9.36450195 C-203.08735352 8.87296631 -202.36708984 8.38143066 -201.625 7.875 C-200.49046387 7.09225708 -200.49046387 7.09225708 -199.33300781 6.29370117 C-141.63813456 -33.03230081 -56.76187028 -49.43491035 0 0 Z M-411.25 5.5625 C-417.6890217 9.64880223 -420.79371758 13.19365274 -423.25 20.5625 C-424.06470255 27.21367818 -423.03509672 32.96896818 -419.25 38.5625 C-415.66493637 42.00063479 -411.71060839 44.42180624 -407.25 46.5625 C-407.91 47.5525 -408.57 48.5425 -409.25 49.5625 C-409.27749478 51.63160593 -409.27749478 51.63160593 -408.875 53.75 C-408.66875 55.008125 -408.4625 56.26625 -408.25 57.5625 C-408.84224365 57.83634521 -409.4344873 58.11019043 -410.04467773 58.39233398 C-412.17117965 59.52067714 -413.74105363 60.69329694 -415.53515625 62.28515625 C-416.14262695 62.81906982 -416.75009766 63.3529834 -417.37597656 63.90307617 C-418.0150293 64.47131104 -418.65408203 65.0395459 -419.3125 65.625 C-423.81372152 69.58235114 -428.33064208 73.49025726 -433 77.25 C-434.75209282 78.68494843 -436.50210401 80.12244241 -438.25 81.5625 C-439.17554688 82.3153125 -440.10109375 83.068125 -441.0546875 83.84375 C-453.76091519 94.68452044 -461.90324546 108.89847689 -464.25 125.5625 C-464.33334898 127.74662195 -464.36784497 129.93294489 -464.36352539 132.11865234 C-464.36340454 133.41730225 -464.36328369 134.71595215 -464.36315918 136.05395508 C-464.35812512 137.41878305 -464.35295863 138.78361054 -464.34765625 140.1484375 C-464.34664917 141.40052002 -464.34564209 142.65260254 -464.34460449 143.94262695 C-464.33938325 148.60759399 -464.32542199 153.27254794 -464.3125 157.9375 C-464.291875 168.37375 -464.27125 178.81 -464.25 189.5625 C-423.66 189.5625 -383.07 189.5625 -341.25 189.5625 C-338.10757366 148.64642905 -338.10757366 148.64642905 -347.9375 105.1875 C-348.46186646 104.19737915 -348.46186646 104.19737915 -348.99682617 103.18725586 C-354.02459267 93.97362862 -360.21356778 87.24119137 -368.4609375 80.77734375 C-371.16125846 78.63297122 -373.70774743 76.39088053 -376.25 74.0625 C-380.59856392 70.09538906 -385.10596024 66.37310779 -389.70703125 62.703125 C-392.39398373 60.4412971 -394.89850107 58.1738566 -397.25 55.5625 C-396.9375 53 -396.9375 53 -396.25 50.5625 C-397.15771823 48.42892076 -397.15771823 48.42892076 -398.25 46.5625 C-397.65832031 46.27117187 -397.06664062 45.97984375 -396.45703125 45.6796875 C-391.15806011 42.93079219 -387.74441987 40.40959854 -384.25 35.5625 C-384.745 34.5725 -384.745 34.5725 -385.25 33.5625 C-385.96414063 33.88476562 -386.67828125 34.20703125 -387.4140625 34.5390625 C-392.49969399 36.37437304 -398.20182481 36.54686483 -403.37890625 34.875 C-408.62958408 32.15326635 -411.41787859 28.05886423 -413.25 22.5625 C-413.83389515 16.66740475 -413.18803151 12.79986051 -410.25 7.5625 C-410.745 6.5725 -410.745 6.5725 -411.25 5.5625 Z M-147.25 47.5625 C-145.54086471 52.47504315 -142.87921172 56.70660505 -140.1875 61.125 C-139.6716333 61.98125977 -139.1557666 62.83751953 -138.62426758 63.71972656 C-135.79073437 68.41399487 -132.92820545 73.08933961 -130.03608704 77.74766541 C-112.28571755 106.34841345 -100.3008057 132.77750124 -107.3984375 167.046875 C-108.25620003 170.58809645 -109.21966165 174.06830906 -110.25 177.5625 C-106.35662213 175.82249656 -103.00204838 173.3614818 -99.5625 170.875 C-98.93746582 170.42439209 -98.31243164 169.97378418 -97.66845703 169.50952148 C-88.3150546 162.73899122 -79.61035711 155.53366807 -71.25 147.5625 C-70.64285156 146.9840332 -70.03570313 146.40556641 -69.41015625 145.80957031 C-49.99794717 127.18139217 -29.66741515 103.13427249 -28.875 74.9375 C-29.23025056 63.01529124 -33.63874596 53.65349436 -42.3125 45.375 C-72.34278905 21.67396469 -115.77323791 32.86204718 -147.25 47.5625 Z " fill="#225A3A" transform="translate(1235.25,391.4375)"/>
<path d="M0 0 C4.20875345 3.9399462 7.47148989 8.20649892 10.75 12.9375 C11.53117187 14.05922607 11.53117187 14.05922607 12.328125 15.20361328 C13.89382486 17.46342089 15.44841703 19.73048288 17 22 C17.45052734 22.65339355 17.90105469 23.30678711 18.36523438 23.97998047 C31.40626939 42.99732441 32 58.8329766 32 83 C11.21 83 -9.58 83 -31 83 C-31 46.35786583 -21.16788744 27.97051084 0 0 Z " fill="#A3B468" transform="translate(1345,686)"/>
<path d="M0 0 C3.34626035 1.39693448 4.91018947 2.86140574 6.91796875 5.859375 C7.44583984 6.63845215 7.97371094 7.4175293 8.51757812 8.22021484 C9.06865234 9.05504395 9.61972656 9.88987305 10.1875 10.75 C10.76048828 11.60674316 11.33347656 12.46348633 11.92382812 13.34619141 C13.08155626 15.08181128 14.23508335 16.82024117 15.38427734 18.56152344 C16.79628984 20.6925571 18.22968107 22.80611256 19.67578125 24.9140625 C33.0328307 44.63758155 32 57.5982168 32 83 C11.54 83 -8.92 83 -30 83 C-30 54.1396246 -27.35801574 37.51167739 -10.734375 15.64453125 C-6.904056 10.59804556 -3.45170429 5.31107508 0 0 Z " fill="#A3B367" transform="translate(1265,686)"/>
</svg>
